<mxfile host="app.diagrams.net" modified="2024-04-29T20:21:47.556Z" agent="Mozilla/5.0 (Macintosh; Intel Mac OS X 10_15_7) AppleWebKit/537.36 (KHTML, like Gecko) Chrome/124.0.0.0 Safari/537.36" etag="JpuChqjoKO-YYqIlDs0W" version="24.3.1" type="device">
  <diagram id="C5RBs43oDa-KdzZeNtuy" name="Page-1">
    <mxGraphModel dx="4770" dy="4074" grid="1" gridSize="10" guides="1" tooltips="1" connect="1" arrows="1" fold="1" page="1" pageScale="1" pageWidth="827" pageHeight="1169" background="#ffffff" math="0" shadow="0">
      <root>
        <mxCell id="WIyWlLk6GJQsqaUBKTNV-0" />
        <mxCell id="WIyWlLk6GJQsqaUBKTNV-1" parent="WIyWlLk6GJQsqaUBKTNV-0" />
        <mxCell id="THILM58QJFT3251B5phs-0" value="&lt;font style=&quot;font-size: 16px;&quot;&gt;Start&lt;/font&gt;" style="ellipse;whiteSpace=wrap;html=1;fontSize=16;" parent="WIyWlLk6GJQsqaUBKTNV-1" vertex="1">
          <mxGeometry x="10" y="155" width="120" height="80" as="geometry" />
        </mxCell>
        <mxCell id="FjEk5ruXgPiQ21s5UyPl-1" style="edgeStyle=orthogonalEdgeStyle;rounded=0;orthogonalLoop=1;jettySize=auto;html=1;entryX=0;entryY=0.5;entryDx=0;entryDy=0;fontSize=16;" parent="WIyWlLk6GJQsqaUBKTNV-1" source="THILM58QJFT3251B5phs-7" target="FjEk5ruXgPiQ21s5UyPl-0" edge="1">
          <mxGeometry relative="1" as="geometry" />
        </mxCell>
        <mxCell id="FjEk5ruXgPiQ21s5UyPl-2" value="No" style="edgeLabel;html=1;align=center;verticalAlign=middle;resizable=0;points=[];fontSize=16;" parent="FjEk5ruXgPiQ21s5UyPl-1" vertex="1" connectable="0">
          <mxGeometry x="-0.1219" y="-1" relative="1" as="geometry">
            <mxPoint as="offset" />
          </mxGeometry>
        </mxCell>
        <mxCell id="FjEk5ruXgPiQ21s5UyPl-20" style="edgeStyle=orthogonalEdgeStyle;rounded=0;orthogonalLoop=1;jettySize=auto;html=1;entryX=0;entryY=0.5;entryDx=0;entryDy=0;fontSize=16;" parent="WIyWlLk6GJQsqaUBKTNV-1" source="THILM58QJFT3251B5phs-7" target="THILM58QJFT3251B5phs-18" edge="1">
          <mxGeometry relative="1" as="geometry">
            <Array as="points">
              <mxPoint x="680" y="345" />
              <mxPoint x="170" y="345" />
              <mxPoint x="170" y="755" />
              <mxPoint x="620" y="755" />
            </Array>
          </mxGeometry>
        </mxCell>
        <mxCell id="FjEk5ruXgPiQ21s5UyPl-21" value="&lt;font style=&quot;font-size: 16px;&quot;&gt;Yes&lt;/font&gt;" style="edgeLabel;html=1;align=center;verticalAlign=middle;resizable=0;points=[];fontSize=16;" parent="FjEk5ruXgPiQ21s5UyPl-20" vertex="1" connectable="0">
          <mxGeometry x="0.1126" relative="1" as="geometry">
            <mxPoint y="-215" as="offset" />
          </mxGeometry>
        </mxCell>
        <mxCell id="THILM58QJFT3251B5phs-7" value="Unemployed?" style="rhombus;whiteSpace=wrap;html=1;fontSize=16;" parent="WIyWlLk6GJQsqaUBKTNV-1" vertex="1">
          <mxGeometry x="600" y="125" width="160" height="140" as="geometry" />
        </mxCell>
        <mxCell id="THILM58QJFT3251B5phs-13" style="edgeStyle=orthogonalEdgeStyle;rounded=0;orthogonalLoop=1;jettySize=auto;html=1;fontFamily=Helvetica;fontSize=16;fontColor=default;exitX=1;exitY=0.5;exitDx=0;exitDy=0;entryX=0;entryY=0.5;entryDx=0;entryDy=0;" parent="WIyWlLk6GJQsqaUBKTNV-1" source="THILM58QJFT3251B5phs-0" target="THILM58QJFT3251B5phs-7" edge="1">
          <mxGeometry relative="1" as="geometry">
            <mxPoint x="70" y="335" as="sourcePoint" />
            <mxPoint x="310" y="195" as="targetPoint" />
          </mxGeometry>
        </mxCell>
        <mxCell id="THILM58QJFT3251B5phs-21" value="" style="edgeStyle=orthogonalEdgeStyle;rounded=0;orthogonalLoop=1;jettySize=auto;html=1;fontFamily=Helvetica;fontSize=16;fontColor=default;" parent="WIyWlLk6GJQsqaUBKTNV-1" source="THILM58QJFT3251B5phs-18" target="THILM58QJFT3251B5phs-20" edge="1">
          <mxGeometry relative="1" as="geometry" />
        </mxCell>
        <mxCell id="THILM58QJFT3251B5phs-18" value="Evaluate available jobs" style="whiteSpace=wrap;html=1;fontSize=16;rounded=1;" parent="WIyWlLk6GJQsqaUBKTNV-1" vertex="1">
          <mxGeometry x="300" y="725" width="120" height="60" as="geometry" />
        </mxCell>
        <mxCell id="THILM58QJFT3251B5phs-23" value="Yes" style="edgeStyle=orthogonalEdgeStyle;rounded=0;orthogonalLoop=1;jettySize=auto;html=1;fontFamily=Helvetica;fontSize=16;fontColor=default;entryX=0;entryY=0.5;entryDx=0;entryDy=0;" parent="WIyWlLk6GJQsqaUBKTNV-1" source="THILM58QJFT3251B5phs-20" target="THILM58QJFT3251B5phs-72" edge="1">
          <mxGeometry relative="1" as="geometry">
            <mxPoint x="975.71" y="865.11" as="targetPoint" />
          </mxGeometry>
        </mxCell>
        <mxCell id="THILM58QJFT3251B5phs-25" value="" style="edgeStyle=orthogonalEdgeStyle;rounded=0;orthogonalLoop=1;jettySize=auto;html=1;fontFamily=Helvetica;fontSize=16;fontColor=default;exitX=0.5;exitY=1;exitDx=0;exitDy=0;" parent="WIyWlLk6GJQsqaUBKTNV-1" source="THILM58QJFT3251B5phs-20" target="THILM58QJFT3251B5phs-24" edge="1">
          <mxGeometry relative="1" as="geometry" />
        </mxCell>
        <mxCell id="THILM58QJFT3251B5phs-26" value="No" style="edgeLabel;html=1;align=center;verticalAlign=middle;resizable=0;points=[];strokeColor=default;fontFamily=Helvetica;fontSize=16;fontColor=default;fillColor=default;" parent="THILM58QJFT3251B5phs-25" vertex="1" connectable="0">
          <mxGeometry x="-0.1364" y="-3" relative="1" as="geometry">
            <mxPoint y="1" as="offset" />
          </mxGeometry>
        </mxCell>
        <mxCell id="THILM58QJFT3251B5phs-20" value="Suitable job available?" style="rhombus;whiteSpace=wrap;html=1;fontSize=16;rounded=0;" parent="WIyWlLk6GJQsqaUBKTNV-1" vertex="1">
          <mxGeometry x="620" y="695" width="120" height="120" as="geometry" />
        </mxCell>
        <mxCell id="FjEk5ruXgPiQ21s5UyPl-30" style="edgeStyle=orthogonalEdgeStyle;rounded=0;orthogonalLoop=1;jettySize=auto;html=1;entryX=0.5;entryY=0;entryDx=0;entryDy=0;fontSize=16;" parent="WIyWlLk6GJQsqaUBKTNV-1" source="THILM58QJFT3251B5phs-22" target="FjEk5ruXgPiQ21s5UyPl-0" edge="1">
          <mxGeometry relative="1" as="geometry">
            <mxPoint x="1385.71" y="535" as="targetPoint" />
            <Array as="points">
              <mxPoint x="1386" y="615" />
              <mxPoint x="1740" y="615" />
              <mxPoint x="1740" y="35" />
              <mxPoint x="1082" y="35" />
            </Array>
          </mxGeometry>
        </mxCell>
        <mxCell id="THILM58QJFT3251B5phs-22" value="Switch jobs &amp;amp; update salary" style="whiteSpace=wrap;html=1;fontSize=16;rounded=1;" parent="WIyWlLk6GJQsqaUBKTNV-1" vertex="1">
          <mxGeometry x="1325.71" y="735.11" width="120" height="60" as="geometry" />
        </mxCell>
        <mxCell id="THILM58QJFT3251B5phs-32" value="" style="edgeStyle=orthogonalEdgeStyle;rounded=0;orthogonalLoop=1;jettySize=auto;html=1;fontFamily=Helvetica;fontSize=16;fontColor=default;entryX=0;entryY=0.5;entryDx=0;entryDy=0;exitX=0.5;exitY=1;exitDx=0;exitDy=0;" parent="WIyWlLk6GJQsqaUBKTNV-1" source="THILM58QJFT3251B5phs-24" target="THILM58QJFT3251B5phs-31" edge="1">
          <mxGeometry relative="1" as="geometry">
            <mxPoint x="750" y="1095" as="sourcePoint" />
            <Array as="points">
              <mxPoint x="680" y="1195" />
            </Array>
          </mxGeometry>
        </mxCell>
        <mxCell id="THILM58QJFT3251B5phs-24" value="Negotiate for raise" style="whiteSpace=wrap;html=1;fontSize=16;rounded=1;" parent="WIyWlLk6GJQsqaUBKTNV-1" vertex="1">
          <mxGeometry x="620" y="985" width="120" height="60" as="geometry" />
        </mxCell>
        <mxCell id="THILM58QJFT3251B5phs-33" style="edgeStyle=orthogonalEdgeStyle;rounded=0;orthogonalLoop=1;jettySize=auto;html=1;fontFamily=Helvetica;fontSize=16;fontColor=default;entryX=0.5;entryY=1;entryDx=0;entryDy=0;exitX=1;exitY=0.5;exitDx=0;exitDy=0;" parent="WIyWlLk6GJQsqaUBKTNV-1" source="THILM58QJFT3251B5phs-31" target="FjEk5ruXgPiQ21s5UyPl-14" edge="1">
          <mxGeometry relative="1" as="geometry">
            <Array as="points">
              <mxPoint x="1590" y="1195" />
            </Array>
            <mxPoint x="1415.71" y="605.11" as="targetPoint" />
          </mxGeometry>
        </mxCell>
        <mxCell id="THILM58QJFT3251B5phs-35" value="Yes" style="edgeLabel;html=1;align=center;verticalAlign=middle;resizable=0;points=[];strokeColor=default;fontFamily=Helvetica;fontSize=16;fontColor=default;fillColor=default;" parent="THILM58QJFT3251B5phs-33" vertex="1" connectable="0">
          <mxGeometry x="-0.0877" y="-1" relative="1" as="geometry">
            <mxPoint as="offset" />
          </mxGeometry>
        </mxCell>
        <mxCell id="FjEk5ruXgPiQ21s5UyPl-23" style="edgeStyle=orthogonalEdgeStyle;rounded=0;orthogonalLoop=1;jettySize=auto;html=1;entryX=0.5;entryY=1;entryDx=0;entryDy=0;fontSize=16;" parent="WIyWlLk6GJQsqaUBKTNV-1" source="THILM58QJFT3251B5phs-31" target="THILM58QJFT3251B5phs-36" edge="1">
          <mxGeometry relative="1" as="geometry" />
        </mxCell>
        <mxCell id="FjEk5ruXgPiQ21s5UyPl-24" value="&lt;font style=&quot;font-size: 16px;&quot;&gt;No&lt;/font&gt;" style="edgeLabel;html=1;align=center;verticalAlign=middle;resizable=0;points=[];fontSize=16;" parent="FjEk5ruXgPiQ21s5UyPl-23" vertex="1" connectable="0">
          <mxGeometry x="-0.035" y="-2" relative="1" as="geometry">
            <mxPoint as="offset" />
          </mxGeometry>
        </mxCell>
        <mxCell id="THILM58QJFT3251B5phs-31" value="Successful?" style="rhombus;whiteSpace=wrap;html=1;fontSize=16;rounded=0;" parent="WIyWlLk6GJQsqaUBKTNV-1" vertex="1">
          <mxGeometry x="930" y="1135.0000000000002" width="116" height="120" as="geometry" />
        </mxCell>
        <mxCell id="FjEk5ruXgPiQ21s5UyPl-31" style="edgeStyle=orthogonalEdgeStyle;rounded=0;orthogonalLoop=1;jettySize=auto;html=1;entryX=0.5;entryY=0;entryDx=0;entryDy=0;fontSize=16;" parent="WIyWlLk6GJQsqaUBKTNV-1" source="THILM58QJFT3251B5phs-36" target="FjEk5ruXgPiQ21s5UyPl-0" edge="1">
          <mxGeometry relative="1" as="geometry">
            <Array as="points">
              <mxPoint x="988" y="615" />
              <mxPoint x="1740" y="615" />
              <mxPoint x="1740" y="35" />
              <mxPoint x="1082" y="35" />
            </Array>
          </mxGeometry>
        </mxCell>
        <mxCell id="THILM58QJFT3251B5phs-36" value="Receive annual salary increase" style="whiteSpace=wrap;html=1;fontSize=16;rounded=1;" parent="WIyWlLk6GJQsqaUBKTNV-1" vertex="1">
          <mxGeometry x="928" y="915.1100000000001" width="120" height="60" as="geometry" />
        </mxCell>
        <mxCell id="THILM58QJFT3251B5phs-39" value="&lt;font style=&quot;font-size: 60px;&quot;&gt;Employee&lt;/font&gt;" style="text;html=1;align=center;verticalAlign=middle;whiteSpace=wrap;rounded=0;fontFamily=Helvetica;fontSize=12;fontColor=default;" parent="WIyWlLk6GJQsqaUBKTNV-1" vertex="1">
          <mxGeometry x="350" y="-120" width="60" height="30" as="geometry" />
        </mxCell>
        <mxCell id="THILM58QJFT3251B5phs-42" value="&lt;font style=&quot;font-size: 60px;&quot;&gt;Employer&lt;/font&gt;" style="text;html=1;align=center;verticalAlign=middle;whiteSpace=wrap;rounded=0;fontFamily=Helvetica;fontSize=12;fontColor=default;" parent="WIyWlLk6GJQsqaUBKTNV-1" vertex="1">
          <mxGeometry x="860" y="1330" width="60" height="30" as="geometry" />
        </mxCell>
        <mxCell id="THILM58QJFT3251B5phs-45" value="" style="edgeStyle=orthogonalEdgeStyle;rounded=0;orthogonalLoop=1;jettySize=auto;html=1;fontFamily=Helvetica;fontSize=16;fontColor=default;" parent="WIyWlLk6GJQsqaUBKTNV-1" source="THILM58QJFT3251B5phs-43" target="THILM58QJFT3251B5phs-44" edge="1">
          <mxGeometry relative="1" as="geometry" />
        </mxCell>
        <mxCell id="THILM58QJFT3251B5phs-43" value="Start" style="ellipse;whiteSpace=wrap;html=1;strokeColor=default;align=center;verticalAlign=middle;fontFamily=Helvetica;fontSize=16;fontColor=default;fillColor=default;" parent="WIyWlLk6GJQsqaUBKTNV-1" vertex="1">
          <mxGeometry x="710" y="1445" width="120" height="80" as="geometry" />
        </mxCell>
        <mxCell id="THILM58QJFT3251B5phs-47" value="" style="edgeStyle=orthogonalEdgeStyle;rounded=0;orthogonalLoop=1;jettySize=auto;html=1;fontFamily=Helvetica;fontSize=16;fontColor=default;" parent="WIyWlLk6GJQsqaUBKTNV-1" source="THILM58QJFT3251B5phs-44" target="THILM58QJFT3251B5phs-46" edge="1">
          <mxGeometry relative="1" as="geometry" />
        </mxCell>
        <mxCell id="THILM58QJFT3251B5phs-44" value="Evaluate workforce needs" style="whiteSpace=wrap;html=1;rounded=1;fontSize=16;" parent="WIyWlLk6GJQsqaUBKTNV-1" vertex="1">
          <mxGeometry x="690" y="1615" width="160" height="60" as="geometry" />
        </mxCell>
        <mxCell id="THILM58QJFT3251B5phs-50" style="edgeStyle=orthogonalEdgeStyle;rounded=0;orthogonalLoop=1;jettySize=auto;html=1;entryX=1;entryY=0.5;entryDx=0;entryDy=0;fontFamily=Helvetica;fontSize=16;fontColor=default;exitX=1;exitY=0.5;exitDx=0;exitDy=0;" parent="WIyWlLk6GJQsqaUBKTNV-1" source="THILM58QJFT3251B5phs-46" target="THILM58QJFT3251B5phs-44" edge="1">
          <mxGeometry relative="1" as="geometry">
            <mxPoint x="840" y="1785" as="sourcePoint" />
            <mxPoint x="900" y="1685" as="targetPoint" />
            <Array as="points">
              <mxPoint x="940" y="1785" />
              <mxPoint x="940" y="1645" />
            </Array>
          </mxGeometry>
        </mxCell>
        <mxCell id="THILM58QJFT3251B5phs-53" value="Yes" style="edgeLabel;html=1;align=center;verticalAlign=middle;resizable=0;points=[];strokeColor=default;fontFamily=Helvetica;fontSize=16;fontColor=default;fillColor=default;" parent="THILM58QJFT3251B5phs-50" vertex="1" connectable="0">
          <mxGeometry x="0.0768" relative="1" as="geometry">
            <mxPoint as="offset" />
          </mxGeometry>
        </mxCell>
        <mxCell id="THILM58QJFT3251B5phs-55" value="" style="edgeStyle=orthogonalEdgeStyle;rounded=0;orthogonalLoop=1;jettySize=auto;html=1;fontFamily=Helvetica;fontSize=16;fontColor=default;" parent="WIyWlLk6GJQsqaUBKTNV-1" source="THILM58QJFT3251B5phs-46" target="THILM58QJFT3251B5phs-54" edge="1">
          <mxGeometry relative="1" as="geometry" />
        </mxCell>
        <mxCell id="THILM58QJFT3251B5phs-62" value="No" style="edgeLabel;html=1;align=center;verticalAlign=middle;resizable=0;points=[];strokeColor=default;fontFamily=Helvetica;fontSize=16;fontColor=default;fillColor=default;" parent="THILM58QJFT3251B5phs-55" vertex="1" connectable="0">
          <mxGeometry x="-0.1739" y="1" relative="1" as="geometry">
            <mxPoint as="offset" />
          </mxGeometry>
        </mxCell>
        <mxCell id="THILM58QJFT3251B5phs-46" value="Needs met?" style="rhombus;whiteSpace=wrap;html=1;rounded=0;fontSize=16;" parent="WIyWlLk6GJQsqaUBKTNV-1" vertex="1">
          <mxGeometry x="710" y="1735" width="120" height="100" as="geometry" />
        </mxCell>
        <mxCell id="THILM58QJFT3251B5phs-57" value="" style="edgeStyle=orthogonalEdgeStyle;rounded=0;orthogonalLoop=1;jettySize=auto;html=1;fontFamily=Helvetica;fontSize=16;fontColor=default;" parent="WIyWlLk6GJQsqaUBKTNV-1" source="THILM58QJFT3251B5phs-54" target="THILM58QJFT3251B5phs-56" edge="1">
          <mxGeometry relative="1" as="geometry" />
        </mxCell>
        <mxCell id="THILM58QJFT3251B5phs-54" value="Advertise opening" style="whiteSpace=wrap;html=1;rounded=1;fontSize=16;" parent="WIyWlLk6GJQsqaUBKTNV-1" vertex="1">
          <mxGeometry x="710" y="1915" width="120" height="60" as="geometry" />
        </mxCell>
        <mxCell id="THILM58QJFT3251B5phs-59" value="" style="edgeStyle=orthogonalEdgeStyle;rounded=0;orthogonalLoop=1;jettySize=auto;html=1;fontFamily=Helvetica;fontSize=16;fontColor=default;" parent="WIyWlLk6GJQsqaUBKTNV-1" source="THILM58QJFT3251B5phs-56" target="THILM58QJFT3251B5phs-58" edge="1">
          <mxGeometry relative="1" as="geometry" />
        </mxCell>
        <mxCell id="THILM58QJFT3251B5phs-63" value="Yes" style="edgeLabel;html=1;align=center;verticalAlign=middle;resizable=0;points=[];strokeColor=default;fontFamily=Helvetica;fontSize=16;fontColor=default;fillColor=default;" parent="THILM58QJFT3251B5phs-59" vertex="1" connectable="0">
          <mxGeometry x="-0.2235" y="3" relative="1" as="geometry">
            <mxPoint as="offset" />
          </mxGeometry>
        </mxCell>
        <mxCell id="THILM58QJFT3251B5phs-65" value="" style="edgeStyle=orthogonalEdgeStyle;rounded=0;orthogonalLoop=1;jettySize=auto;html=1;fontFamily=Helvetica;fontSize=16;fontColor=default;" parent="WIyWlLk6GJQsqaUBKTNV-1" source="THILM58QJFT3251B5phs-56" target="THILM58QJFT3251B5phs-64" edge="1">
          <mxGeometry relative="1" as="geometry" />
        </mxCell>
        <mxCell id="THILM58QJFT3251B5phs-66" value="No" style="edgeLabel;html=1;align=center;verticalAlign=middle;resizable=0;points=[];strokeColor=default;fontFamily=Helvetica;fontSize=16;fontColor=default;fillColor=default;" parent="THILM58QJFT3251B5phs-65" vertex="1" connectable="0">
          <mxGeometry x="-0.2" y="-1" relative="1" as="geometry">
            <mxPoint as="offset" />
          </mxGeometry>
        </mxCell>
        <mxCell id="THILM58QJFT3251B5phs-56" value="Suitable hire found?" style="rhombus;whiteSpace=wrap;html=1;rounded=0;fontSize=16;" parent="WIyWlLk6GJQsqaUBKTNV-1" vertex="1">
          <mxGeometry x="880" y="1880" width="120" height="130" as="geometry" />
        </mxCell>
        <mxCell id="THILM58QJFT3251B5phs-61" value="" style="edgeStyle=orthogonalEdgeStyle;rounded=0;orthogonalLoop=1;jettySize=auto;html=1;fontFamily=Helvetica;fontSize=16;fontColor=default;" parent="WIyWlLk6GJQsqaUBKTNV-1" source="THILM58QJFT3251B5phs-58" target="THILM58QJFT3251B5phs-60" edge="1">
          <mxGeometry relative="1" as="geometry" />
        </mxCell>
        <mxCell id="THILM58QJFT3251B5phs-58" value="Hire" style="whiteSpace=wrap;html=1;rounded=1;fontSize=16;" parent="WIyWlLk6GJQsqaUBKTNV-1" vertex="1">
          <mxGeometry x="1090" y="1915" width="120" height="60" as="geometry" />
        </mxCell>
        <mxCell id="THILM58QJFT3251B5phs-68" style="edgeStyle=orthogonalEdgeStyle;rounded=0;orthogonalLoop=1;jettySize=auto;html=1;entryX=1;entryY=0.5;entryDx=0;entryDy=0;fontFamily=Helvetica;fontSize=16;fontColor=default;exitX=0.5;exitY=0;exitDx=0;exitDy=0;" parent="WIyWlLk6GJQsqaUBKTNV-1" source="THILM58QJFT3251B5phs-60" target="THILM58QJFT3251B5phs-44" edge="1">
          <mxGeometry relative="1" as="geometry">
            <mxPoint x="1170" y="1735" as="sourcePoint" />
            <Array as="points">
              <mxPoint x="1150" y="1645" />
            </Array>
          </mxGeometry>
        </mxCell>
        <mxCell id="THILM58QJFT3251B5phs-60" value="Update number of employees" style="whiteSpace=wrap;html=1;rounded=1;fontSize=16;" parent="WIyWlLk6GJQsqaUBKTNV-1" vertex="1">
          <mxGeometry x="1080" y="1775" width="140" height="60" as="geometry" />
        </mxCell>
        <mxCell id="THILM58QJFT3251B5phs-69" style="edgeStyle=orthogonalEdgeStyle;rounded=0;orthogonalLoop=1;jettySize=auto;html=1;entryX=0.5;entryY=1;entryDx=0;entryDy=0;fontFamily=Helvetica;fontSize=12;fontColor=default;" parent="WIyWlLk6GJQsqaUBKTNV-1" source="THILM58QJFT3251B5phs-64" target="THILM58QJFT3251B5phs-54" edge="1">
          <mxGeometry relative="1" as="geometry" />
        </mxCell>
        <mxCell id="THILM58QJFT3251B5phs-64" value="Maintain workforce needs" style="whiteSpace=wrap;html=1;rounded=1;fontSize=16;" parent="WIyWlLk6GJQsqaUBKTNV-1" vertex="1">
          <mxGeometry x="860" y="2075" width="160" height="60" as="geometry" />
        </mxCell>
        <mxCell id="THILM58QJFT3251B5phs-75" value="" style="edgeStyle=orthogonalEdgeStyle;rounded=0;orthogonalLoop=1;jettySize=auto;html=1;fontFamily=Helvetica;fontSize=16;fontColor=default;exitX=0.5;exitY=1;exitDx=0;exitDy=0;entryX=0;entryY=0.5;entryDx=0;entryDy=0;" parent="WIyWlLk6GJQsqaUBKTNV-1" source="THILM58QJFT3251B5phs-72" target="THILM58QJFT3251B5phs-77" edge="1">
          <mxGeometry relative="1" as="geometry">
            <mxPoint x="1245.71" y="1005.11" as="targetPoint" />
          </mxGeometry>
        </mxCell>
        <mxCell id="THILM58QJFT3251B5phs-72" value="Apply" style="rounded=1;whiteSpace=wrap;html=1;strokeColor=default;align=center;verticalAlign=middle;fontFamily=Helvetica;fontSize=16;fontColor=default;fillColor=default;" parent="WIyWlLk6GJQsqaUBKTNV-1" vertex="1">
          <mxGeometry x="1116.71" y="725" width="120" height="60" as="geometry" />
        </mxCell>
        <mxCell id="THILM58QJFT3251B5phs-78" style="edgeStyle=orthogonalEdgeStyle;rounded=0;orthogonalLoop=1;jettySize=auto;html=1;entryX=0.5;entryY=1;entryDx=0;entryDy=0;fontFamily=Helvetica;fontSize=16;fontColor=default;exitX=1;exitY=0.5;exitDx=0;exitDy=0;" parent="WIyWlLk6GJQsqaUBKTNV-1" source="THILM58QJFT3251B5phs-77" target="THILM58QJFT3251B5phs-22" edge="1">
          <mxGeometry relative="1" as="geometry" />
        </mxCell>
        <mxCell id="THILM58QJFT3251B5phs-79" value="Yes" style="edgeLabel;html=1;align=center;verticalAlign=middle;resizable=0;points=[];strokeColor=default;fontFamily=Helvetica;fontSize=16;fontColor=default;fillColor=default;" parent="THILM58QJFT3251B5phs-78" vertex="1" connectable="0">
          <mxGeometry x="0.1756" y="1" relative="1" as="geometry">
            <mxPoint as="offset" />
          </mxGeometry>
        </mxCell>
        <mxCell id="THILM58QJFT3251B5phs-80" style="edgeStyle=orthogonalEdgeStyle;rounded=0;orthogonalLoop=1;jettySize=auto;html=1;entryX=1;entryY=0.5;entryDx=0;entryDy=0;fontFamily=Helvetica;fontSize=16;fontColor=default;exitX=0.5;exitY=1;exitDx=0;exitDy=0;" parent="WIyWlLk6GJQsqaUBKTNV-1" source="THILM58QJFT3251B5phs-77" target="THILM58QJFT3251B5phs-36" edge="1">
          <mxGeometry relative="1" as="geometry" />
        </mxCell>
        <mxCell id="THILM58QJFT3251B5phs-81" value="No" style="edgeLabel;html=1;align=center;verticalAlign=middle;resizable=0;points=[];strokeColor=default;fontFamily=Helvetica;fontSize=16;fontColor=default;fillColor=default;" parent="THILM58QJFT3251B5phs-80" vertex="1" connectable="0">
          <mxGeometry x="-0.407" relative="1" as="geometry">
            <mxPoint as="offset" />
          </mxGeometry>
        </mxCell>
        <mxCell id="THILM58QJFT3251B5phs-77" value="Successful?" style="rhombus;whiteSpace=wrap;html=1;fontSize=16;rounded=0;" parent="WIyWlLk6GJQsqaUBKTNV-1" vertex="1">
          <mxGeometry x="1236.71" y="915.11" width="116" height="120" as="geometry" />
        </mxCell>
        <mxCell id="FjEk5ruXgPiQ21s5UyPl-8" style="edgeStyle=orthogonalEdgeStyle;rounded=0;orthogonalLoop=1;jettySize=auto;html=1;entryX=0;entryY=0.5;entryDx=0;entryDy=0;fontSize=16;" parent="WIyWlLk6GJQsqaUBKTNV-1" source="FjEk5ruXgPiQ21s5UyPl-0" target="FjEk5ruXgPiQ21s5UyPl-7" edge="1">
          <mxGeometry relative="1" as="geometry" />
        </mxCell>
        <mxCell id="FjEk5ruXgPiQ21s5UyPl-9" value="Yes" style="edgeLabel;html=1;align=center;verticalAlign=middle;resizable=0;points=[];fontSize=16;" parent="FjEk5ruXgPiQ21s5UyPl-8" vertex="1" connectable="0">
          <mxGeometry x="-0.3789" relative="1" as="geometry">
            <mxPoint as="offset" />
          </mxGeometry>
        </mxCell>
        <mxCell id="FjEk5ruXgPiQ21s5UyPl-25" style="edgeStyle=orthogonalEdgeStyle;rounded=0;orthogonalLoop=1;jettySize=auto;html=1;entryX=0;entryY=0.75;entryDx=0;entryDy=0;fontSize=16;" parent="WIyWlLk6GJQsqaUBKTNV-1" source="FjEk5ruXgPiQ21s5UyPl-0" target="THILM58QJFT3251B5phs-24" edge="1">
          <mxGeometry relative="1" as="geometry">
            <Array as="points">
              <mxPoint x="1082" y="455" />
              <mxPoint x="490" y="455" />
              <mxPoint x="490" y="1030" />
            </Array>
          </mxGeometry>
        </mxCell>
        <mxCell id="FjEk5ruXgPiQ21s5UyPl-27" value="&lt;font style=&quot;font-size: 16px;&quot;&gt;No&lt;/font&gt;" style="edgeLabel;html=1;align=center;verticalAlign=middle;resizable=0;points=[];fontSize=16;" parent="FjEk5ruXgPiQ21s5UyPl-25" vertex="1" connectable="0">
          <mxGeometry x="-0.254" y="3" relative="1" as="geometry">
            <mxPoint as="offset" />
          </mxGeometry>
        </mxCell>
        <mxCell id="FjEk5ruXgPiQ21s5UyPl-0" value="Tend to stay?" style="rhombus;whiteSpace=wrap;html=1;fontSize=16;" parent="WIyWlLk6GJQsqaUBKTNV-1" vertex="1">
          <mxGeometry x="1006.71" y="110" width="150" height="170" as="geometry" />
        </mxCell>
        <mxCell id="FjEk5ruXgPiQ21s5UyPl-28" style="edgeStyle=orthogonalEdgeStyle;rounded=0;orthogonalLoop=1;jettySize=auto;html=1;entryX=0.5;entryY=0;entryDx=0;entryDy=0;fontSize=16;exitX=1;exitY=0.5;exitDx=0;exitDy=0;" parent="WIyWlLk6GJQsqaUBKTNV-1" source="FjEk5ruXgPiQ21s5UyPl-7" target="THILM58QJFT3251B5phs-72" edge="1">
          <mxGeometry relative="1" as="geometry">
            <Array as="points">
              <mxPoint x="1580" y="195" />
              <mxPoint x="1580" y="455" />
              <mxPoint x="1177" y="455" />
            </Array>
          </mxGeometry>
        </mxCell>
        <mxCell id="FjEk5ruXgPiQ21s5UyPl-33" value="&lt;font style=&quot;font-size: 16px;&quot;&gt;Yes&lt;/font&gt;" style="edgeLabel;html=1;align=center;verticalAlign=middle;resizable=0;points=[];" parent="FjEk5ruXgPiQ21s5UyPl-28" vertex="1" connectable="0">
          <mxGeometry x="-0.1502" y="3" relative="1" as="geometry">
            <mxPoint as="offset" />
          </mxGeometry>
        </mxCell>
        <mxCell id="FjEk5ruXgPiQ21s5UyPl-34" style="edgeStyle=orthogonalEdgeStyle;rounded=0;orthogonalLoop=1;jettySize=auto;html=1;entryX=1;entryY=0.5;entryDx=0;entryDy=0;" parent="WIyWlLk6GJQsqaUBKTNV-1" source="FjEk5ruXgPiQ21s5UyPl-7" target="THILM58QJFT3251B5phs-24" edge="1">
          <mxGeometry relative="1" as="geometry">
            <Array as="points">
              <mxPoint x="1396" y="375" />
              <mxPoint x="850" y="375" />
              <mxPoint x="850" y="1015" />
            </Array>
          </mxGeometry>
        </mxCell>
        <mxCell id="FjEk5ruXgPiQ21s5UyPl-35" value="&lt;font style=&quot;font-size: 16px;&quot;&gt;No&lt;/font&gt;" style="edgeLabel;html=1;align=center;verticalAlign=middle;resizable=0;points=[];" parent="FjEk5ruXgPiQ21s5UyPl-34" vertex="1" connectable="0">
          <mxGeometry x="0.2107" y="-4" relative="1" as="geometry">
            <mxPoint y="1" as="offset" />
          </mxGeometry>
        </mxCell>
        <mxCell id="FjEk5ruXgPiQ21s5UyPl-7" value="Salary Increase &amp;gt; Tipping Point" style="rhombus;whiteSpace=wrap;html=1;fontSize=16;" parent="WIyWlLk6GJQsqaUBKTNV-1" vertex="1">
          <mxGeometry x="1320" y="104.99999999999999" width="152" height="180" as="geometry" />
        </mxCell>
        <mxCell id="FjEk5ruXgPiQ21s5UyPl-29" style="edgeStyle=orthogonalEdgeStyle;rounded=0;orthogonalLoop=1;jettySize=auto;html=1;entryX=0.5;entryY=0;entryDx=0;entryDy=0;fontSize=16;" parent="WIyWlLk6GJQsqaUBKTNV-1" source="FjEk5ruXgPiQ21s5UyPl-36" target="FjEk5ruXgPiQ21s5UyPl-0" edge="1">
          <mxGeometry relative="1" as="geometry">
            <Array as="points">
              <mxPoint x="1082" y="35" />
            </Array>
          </mxGeometry>
        </mxCell>
        <mxCell id="FjEk5ruXgPiQ21s5UyPl-14" value="Update salary with raise" style="rounded=1;whiteSpace=wrap;html=1;fontSize=16;" parent="WIyWlLk6GJQsqaUBKTNV-1" vertex="1">
          <mxGeometry x="1530" y="735.11" width="120" height="60" as="geometry" />
        </mxCell>
        <mxCell id="FjEk5ruXgPiQ21s5UyPl-37" value="" style="edgeStyle=orthogonalEdgeStyle;rounded=0;orthogonalLoop=1;jettySize=auto;html=1;entryX=0.5;entryY=0;entryDx=0;entryDy=0;fontSize=16;" parent="WIyWlLk6GJQsqaUBKTNV-1" source="FjEk5ruXgPiQ21s5UyPl-14" target="FjEk5ruXgPiQ21s5UyPl-36" edge="1">
          <mxGeometry relative="1" as="geometry">
            <mxPoint x="1650" y="765" as="sourcePoint" />
            <mxPoint x="1082" y="110" as="targetPoint" />
            <Array as="points">
              <mxPoint x="1740" y="765" />
              <mxPoint x="1740" y="35" />
            </Array>
          </mxGeometry>
        </mxCell>
        <mxCell id="FjEk5ruXgPiQ21s5UyPl-36" value="&lt;font style=&quot;font-size: 16px;&quot;&gt;Apply Inflation&lt;/font&gt;" style="rounded=1;whiteSpace=wrap;html=1;" parent="WIyWlLk6GJQsqaUBKTNV-1" vertex="1">
          <mxGeometry x="1390" y="5" width="120" height="60" as="geometry" />
        </mxCell>
      </root>
    </mxGraphModel>
  </diagram>
</mxfile>
